# xmcd
#
# Track frame offsets: 
#        150
#        16880
#        34022
#        51973
#        67649
#        81149
#        96260
#        113132
#        127470
#        145085
#        160985
#
# Disc length: 2428 seconds
#
# Revision: 3
# Processed by: cddbd v1.5.2PL0 Copyright (c) Steve Scherf et al.
# Submitted via: ExactAudioCopyFreeDBPlugin 1.0
#
DISCID=8f097a0b
DTITLE=Charles Bradley - Victim of Love
DYEAR=2013
DGENRE=Soul
TTITLE0=Strictly Reserved for You
TTITLE1=You Put the Flame on It
TTITLE2=Let Love Stand a Chance
TTITLE3=Victim of Love
TTITLE4=Love Bug Blues
TTITLE5=Dusty Blue
TTITLE6=Confusion
TTITLE7=Where Do We Go from Here
TTITLE8=Crying in the Chapel
TTITLE9=Hurricane
TTITLE10=Through the Storm
EXTD=
EXTT0=
EXTT1=
EXTT2=
EXTT3=
EXTT4=
EXTT5=
EXTT6=
EXTT7=
EXTT8=
EXTT9=
EXTT10=
PLAYORDER=
